<?xml version="1.0" encoding="UTF-8"?>
<svg version="1.1" xmlns="http://www.w3.org/2000/svg" width="572" height="668">
<path d="M0 0 C188.76 0 377.52 0 572 0 C572 220.44 572 440.88 572 668 C383.24 668 194.48 668 0 668 C0 447.56 0 227.12 0 0 Z " fill="#c7ede6" transform="translate(0,0)"/>
<path d="M0 0 C51.48 0 102.96 0 156 0 C156 188.43 156 376.86 156 571 C151.67366516 567.291713 147.62051331 563.74529451 143.62359428 559.74664211 C143.12738699 559.25158866 142.63117969 558.75653521 142.11993581 558.24648014 C140.47169974 556.60087332 138.82703018 554.95174971 137.18234253 553.30259705 C135.98388574 552.10457672 134.78520906 550.90677633 133.58633244 549.70917612 C130.30309664 546.42817069 127.02297761 543.14406489 123.74336886 539.85943449 C120.20189068 536.31363079 116.65751571 532.77072477 113.11349487 529.22746277 C106.97599327 523.09048514 100.84032321 516.95168131 94.70589828 510.81162834 C85.83114657 501.92874017 76.95362593 493.0486235 68.07543291 484.16917498 C53.66340306 469.75495712 39.25360683 455.33850848 24.84521484 440.9206543 C10.86265946 426.92892597 -3.12094091 412.9382434 -17.10595703 398.94897461 C-17.96751967 398.08714925 -18.82908231 397.22532389 -19.7167529 396.33738261 C-24.03976618 392.01306409 -28.36280021 387.68876631 -32.68584466 383.36447895 C-62.47675561 353.56495997 -92.26544549 323.76322207 -122.05187988 293.95922852 C-122.68690317 293.32383106 -123.32192646 292.6884336 -123.97619288 292.03378168 C-126.9164867 289.09175002 -129.85676875 286.1497066 -132.79702485 283.20763725 C-133.58080883 282.42337762 -133.58080883 282.42337762 -134.38042682 281.62327436 C-135.76281442 280.24004719 -137.1451944 278.85681241 -138.5275737 277.47357696 C-139.75142472 276.24915637 -139.75142472 276.24915637 -141 275 C-141.89194498 274.10276059 -142.78388996 273.20552118 -143.70286357 272.2810927 C-145.59509928 270.4020728 -147.50030593 268.6842049 -149.5625 267 C-152.44603951 264.5701208 -154.65118139 261.95496534 -157 259 C-158.98260426 257.31267723 -160.9832342 255.64633943 -163 254 C-165.68720976 251.44387364 -168.09748464 248.8800189 -170.4375 246 C-172.37891633 243.72712235 -174.02159784 242.07841957 -176.3125 240.25 C-177.6428125 239.13625 -177.6428125 239.13625 -179 238 C-179 237.34 -179 236.68 -179 236 C-179.53625 235.79375 -180.0725 235.5875 -180.625 235.375 C-183.91978009 233.46749574 -186.59363628 230.95180616 -189 228 C-189 227.34 -189 226.68 -189 226 C-189.59401611 225.72978027 -190.18803223 225.45956055 -190.80004883 225.18115234 C-194.33771803 223.28178007 -196.87504785 220.45302497 -199.6875 217.625 C-200.28111328 217.0475 -200.87472656 216.47 -201.48632812 215.875 C-202.33420898 215.02808594 -202.33420898 215.02808594 -203.19921875 214.1640625 C-203.71315186 213.65311035 -204.22708496 213.1421582 -204.7565918 212.61572266 C-206.25524082 210.66833227 -206.73117907 209.44578483 -207 207 C-205.83472192 205.21372944 -205.83472192 205.21372944 -203.98230553 203.36706638 C-203.28373416 202.65853978 -202.5851628 201.95001317 -201.86542261 201.22001606 C-201.07994881 200.44910647 -200.29447501 199.67819688 -199.48519897 198.88392639 C-198.66470365 198.05915894 -197.84420833 197.2343915 -196.99884951 196.3846311 C-194.71205951 194.09100829 -192.41435073 191.80900488 -190.11167693 189.53134882 C-187.63353823 187.07474232 -185.1698042 184.60376564 -182.70431519 182.13447571 C-178.42734168 177.85487612 -174.14128332 173.58455156 -169.84897995 169.32032967 C-163.63755072 163.14950825 -157.43994791 156.96495252 -151.24565037 150.77694004 C-141.18897848 140.73122179 -131.12118559 130.69672573 -121.04638672 120.66918945 C-111.27039031 110.93900614 -101.49959523 101.20364884 -91.73583984 91.46118164 C-91.13503103 90.86168644 -90.53422222 90.26219125 -89.91520707 89.64452953 C-86.90052317 86.63637199 -83.88594289 83.62811064 -80.8714149 80.61979687 C-60.07618953 59.86765 -39.26992503 39.12661941 -18.45239258 18.39685059 C-17.57427024 17.52242622 -16.69614791 16.64800186 -15.79141581 15.74707979 C-14.17335463 14.13589721 -12.55523349 12.52477485 -10.93703783 10.91372734 C-10.22281998 10.20259299 -9.50860213 9.49145864 -8.77274132 8.75877476 C-8.16046979 8.1492136 -7.54819827 7.53965243 -6.91737306 6.91161972 C-4.60908016 4.61025317 -2.30483233 2.30483233 0 0 Z " fill="#88ae45" transform="translate(416,0)"/>
<path d="M0 0 C137.28 0 274.56 0 416 0 C409.24992166 7.8750914 409.24992166 7.8750914 406.14382553 10.98480892 C405.43643352 11.69542538 404.72904151 12.40604183 404.00021338 13.13819212 C403.24086501 13.89599189 402.48151664 14.65379166 401.69915771 15.43455505 C400.87873183 16.2572465 400.05830594 17.07993795 399.21301866 17.92755944 C396.95192137 20.19386656 394.68862147 22.4579459 392.42432642 24.7210573 C389.9767828 27.1683959 387.53210909 29.61859862 385.08703613 32.06840515 C380.30477309 36.85895038 375.51975776 41.64673717 370.73363134 46.43342232 C366.84577901 50.3217505 362.95871882 54.2108688 359.07221222 58.10054207 C348.05257267 69.12897764 337.03084974 80.15532498 326.00643584 91.17898797 C325.41295459 91.77242927 324.81947334 92.36587056 324.20800781 92.97729492 C323.61380249 93.57145937 323.01959716 94.16562381 322.40738562 94.77779324 C312.75697586 104.4277957 303.11157608 114.08278871 293.46841094 123.74003016 C283.56629111 133.65649042 273.66047142 143.56924131 263.75074601 153.47810131 C258.18721492 159.04129987 252.62524652 164.60604069 247.06725311 170.17477226 C242.34060777 174.91049139 237.61055636 179.64277473 232.87596533 184.37055063 C230.45901572 186.78422058 228.04373934 189.19950664 225.63274384 191.61912537 C223.02403159 194.23547899 220.40931823 196.84567872 217.79290771 199.45433044 C216.64050083 200.61445268 216.64050083 200.61445268 215.46481299 201.79801172 C214.76785197 202.49037394 214.07089096 203.18273617 213.35280991 203.89607906 C212.44749893 204.80171609 212.44749893 204.80171609 211.52389884 205.72564882 C210 207 210 207 208 207 C207.60099696 207.88647588 207.60099696 207.88647588 207.19393325 208.79086035 C205.9692804 211.05684061 204.71453217 212.53303274 202.89706802 214.34623432 C202.25584133 214.99082641 201.61461464 215.6354185 200.95395684 216.29954368 C200.24794076 216.99905196 199.54192467 217.69856024 198.81451416 218.41926575 C197.69124053 219.54404431 197.69124053 219.54404431 196.5452745 220.69154567 C194.02742029 223.21035469 191.50247749 225.72193654 188.97753906 228.23364258 C187.173758 230.03522303 185.37042395 231.83725113 183.56750488 233.63969421 C179.67986977 237.52439238 175.78922229 241.40603397 171.89588165 245.2850132 C166.25972698 250.90047727 160.62958861 256.52194233 155.00099227 262.14498123 C145.85950818 271.27720703 136.71393365 280.40532448 127.56542969 289.53051758 C126.74407731 290.34977999 126.74407731 290.34977999 125.90613195 291.18559315 C125.35789755 291.73243202 124.80966315 292.27927089 124.24481559 292.84268063 C116.48086811 300.58688113 108.71787455 308.33203615 100.95605469 316.07836914 C100.41036537 316.62296761 99.86467605 317.16756608 99.30245069 317.72866753 C90.19501038 326.81806736 81.08961153 335.90951047 71.98525405 345.00199813 C66.37219513 350.60747705 60.75706948 356.21087122 55.1392307 361.81155982 C50.83086493 366.10695911 46.52496137 370.40481775 42.21992493 374.70355415 C40.45597442 376.46403836 38.69115293 378.22365037 36.92539215 379.98231888 C34.51240981 382.38582368 32.10255614 384.79242379 29.69342041 387.19978333 C28.99632721 387.89259944 28.29923401 388.58541556 27.58101678 389.29922611 C23.96368852 392.92076006 20.5215011 396.61592407 17.24611449 400.55071563 C15.66289756 402.39206453 13.93052579 403.95186869 12.0625 405.5 C8.63435127 408.40733383 5.46782551 411.48095533 2.34765625 414.71484375 C1 416 1 416 0 416 C0 278.72 0 141.44 0 0 Z " fill="#c7ede6" transform="translate(0,0)"/>
<path d="M0 0 C2.70501769 1.25659331 4.86640054 2.57800523 7.08467484 4.56762791 C7.67088269 5.09003388 8.25709055 5.61243985 8.86106229 6.15067631 C9.49530834 6.72458243 10.12955439 7.29848855 10.78302002 7.88978577 C11.46430741 8.50092442 12.1455948 9.11206308 12.84752727 9.74172109 C15.13423506 11.79758539 17.41375871 13.86120685 19.69238281 15.92602539 C20.4918697 16.64818804 21.29135658 17.37035069 22.11507034 18.11439705 C37.55015479 32.06696109 52.71806711 46.29961287 67.77712651 60.65635473 C70.25787694 63.02119181 72.74061705 65.38392995 75.22460938 67.74536133 C75.71878942 68.21522827 76.21296947 68.6850952 76.72212467 69.16920053 C84.61607811 76.66476449 92.6660202 83.9664729 100.79623976 91.20414753 C109.21926877 98.71016646 117.43035676 106.4133439 125.50321078 114.29528612 C130.78020787 119.43414256 136.14021159 124.37094005 141.80648661 129.0792743 C156.19730069 141.95791378 159.12198094 149.20533263 170 168 C170 200.01 170 232.02 170 265 C26.45 265 -117.1 265 -265 265 C-260.94892687 260.27374802 -256.9210192 255.77970676 -252.52319336 251.40966797 C-251.90612015 250.79244873 -251.28904694 250.17522949 -250.65327454 249.53930664 C-248.63449497 247.52121767 -246.61220642 245.50668521 -244.58984375 243.4921875 C-243.17528209 242.07949417 -241.76094346 240.66657748 -240.34681702 239.25344849 C-236.6372521 235.54768537 -232.9246959 231.84493341 -229.21148682 228.14282227 C-225.438012 224.37957696 -221.667362 220.61350369 -217.89648438 216.84765625 C-211.8052136 210.76515404 -205.71224079 204.68436324 -199.61697388 198.60586548 C-196.40884483 195.40637475 -193.20314646 192.20448103 -190 189 C-151.66666667 150.66666667 -113.33333333 112.33333333 -75 74 C-73.86911201 72.85383209 -73.86911201 72.85383209 -72.71537781 71.68450928 C-69.89188932 68.89311833 -66.98172592 66.21162027 -64.04614258 63.54003906 C-56.92194846 57.00572459 -50.08100049 50.20911528 -43.26171875 43.359375 C-42.00256616 42.09835068 -40.74318767 40.83755187 -39.4835968 39.57696533 C-36.21493348 36.30453616 -32.94928756 33.02911283 -29.68432617 29.75299072 C-26.33373594 26.39205664 -22.98021045 23.03405396 -19.62695312 19.67578125 C-13.08180851 13.12000436 -6.53985744 6.56105095 0 0 Z " fill="#88ae45" transform="translate(402,403)"/>
<path d="M0 0 C5.23776765 4.37898371 10.12497022 8.98487965 14.94102478 13.82077026 C15.71063005 14.5895211 16.48023531 15.35827194 17.27316195 16.15031826 C19.83805166 18.71356764 22.39936307 21.28036222 24.96069336 23.84716797 C26.80385212 25.69060894 28.64723137 27.53382946 30.49081421 29.37684631 C34.45276162 33.33827081 38.41288218 37.30151388 42.37174797 41.26601791 C48.09552078 46.99793721 53.82207137 52.72707476 59.54929144 58.45554937 C68.84251831 67.75096182 78.13351242 77.04860261 87.4230957 86.34765625 C96.44405552 95.37780298 105.46607091 104.40689294 114.48950195 113.43457031 C115.04623106 113.99156214 115.60296017 114.54855398 116.17655986 115.12242435 C118.96966951 117.91683909 121.76279986 120.71123314 124.55594051 123.5056169 C147.7071706 146.66720421 170.85477417 169.83241264 194 193 C187.07787797 207.2261044 176.19340841 219.84430806 165.9375 231.75 C165.23802372 232.56397121 164.53854744 233.37794243 163.81787491 234.21657944 C145.02405357 255.69667791 125.70090741 267.94821664 97.2374115 270.09432983 C81.55143211 271.09253707 65.88421756 270.90632729 50.1875 270.3125 C49.39829084 270.28339224 48.60908168 270.25428448 47.79595709 270.22429466 C27.14229469 269.44814562 6.56868452 268.03631298 -14 266 C-14.31980595 234.13525159 -14.56735374 202.27096223 -14.71491461 170.4049825 C-14.7324232 166.63766148 -14.75054384 162.87034363 -14.76904297 159.10302734 C-14.77271531 158.35306477 -14.77638766 157.60310219 -14.78017129 156.83041348 C-14.84098786 144.70817138 -14.95131256 132.58686466 -15.08013915 120.46517633 C-15.21135037 108.01469051 -15.28888297 95.56469241 -15.31723893 83.11354363 C-15.33639118 75.438136 -15.39672731 67.7653724 -15.51083054 60.09077944 C-15.59402364 54.19249888 -15.60230188 48.29555365 -15.58350754 42.3966713 C-15.58734286 39.98677606 -15.6149788 37.57677596 -15.66887665 35.16748047 C-16.09576624 15.09149072 -16.09576624 15.09149072 -8.88043606 7.32420552 C-6.0536122 4.65505924 -3.14162062 2.29184245 0 0 Z " fill="#c7ede6" transform="translate(14,402)"/>
<path d="M0 0 C0 111.54 0 223.08 0 338 C-7.875 331.25 -7.875 331.25 -10.39134884 328.73169899 C-11.25871997 327.86731443 -11.25871997 327.86731443 -12.14361376 326.98546755 C-12.75355749 326.37261098 -13.36350122 325.7597544 -13.9919281 325.12832642 C-14.65944456 324.46166438 -15.32696101 323.79500235 -16.01470524 323.10813844 C-18.23410601 320.89037497 -20.4499314 318.66907454 -22.66577148 316.44775391 C-24.26262792 314.85061519 -25.85970499 313.25369705 -27.45698547 311.65698242 C-31.78098888 307.33326541 -36.10190647 303.00647652 -40.42227054 298.6791234 C-44.94216101 294.15297319 -49.46489168 289.62966284 -53.98731995 285.10604858 C-61.57380758 277.516808 -69.15854751 269.9258258 -76.74194336 262.33349609 C-84.55033686 254.51591329 -92.35978762 246.69938913 -100.1706543 238.88427734 C-100.65270852 238.4019604 -101.13476274 237.91964346 -101.63142466 237.42271085 C-104.04993252 235.00289788 -106.46846109 232.58310562 -108.88699996 230.16332364 C-128.92787849 210.11209077 -148.9650929 190.05719932 -169 170 C-167.7108565 167.16838369 -166.36145053 165.11161198 -164.16421413 162.91532516 C-163.58260507 162.32911731 -163.00099601 161.74290945 -162.40176243 161.13893771 C-161.76237281 160.50469166 -161.1229832 159.87044561 -160.46421814 159.21697998 C-159.78534516 158.53569259 -159.10647219 157.8544052 -158.4070273 157.15247273 C-156.12626802 154.86606825 -153.83841698 152.58689486 -151.55053711 150.30761719 C-149.91599481 148.67200224 -148.2818855 147.03595449 -146.6481781 145.39950562 C-142.20666627 140.95314057 -137.75891996 136.51306011 -133.30991435 132.07419491 C-128.66260596 127.43565596 -124.02055617 122.79186002 -119.37782288 118.14874268 C-111.58253192 110.35403407 -103.78304644 102.56353849 -95.98120117 94.77539062 C-87.9466435 86.75493169 -79.91560794 78.73096768 -71.88842773 70.703125 C-71.14630211 69.96093944 -71.14630211 69.96093944 -70.38918405 69.20376024 C-69.89530345 68.70983928 -69.40142284 68.21591832 -68.89257616 67.70703006 C-60.22391262 59.03771244 -51.55235608 50.37129547 -42.87921333 41.70645905 C-39.18106161 38.01184771 -35.48376935 34.31637938 -31.78712273 30.62026215 C-27.44015871 26.27429876 -23.09066725 21.93088085 -18.73916054 17.58946609 C-17.13743861 15.99067785 -15.53657501 14.3910292 -13.93660736 12.79048538 C-11.76297279 10.61636408 -9.5863144 8.44531802 -7.40879822 6.27508545 C-6.76717788 5.63191651 -6.12555755 4.98874757 -5.46449417 4.32608867 C-1.11417869 0 -1.11417869 0 0 0 Z " fill="#88ae45" transform="translate(572,233)"/>
<path d="M0 0 C4.80614174 4.01028021 9.3440916 8.19934978 13.76147461 12.63208008 C14.39647888 13.26533203 15.03148315 13.89858398 15.68572998 14.55102539 C17.76043808 16.62137153 19.83151387 18.69530654 21.90234375 20.76953125 C23.34950908 22.21602242 24.79682278 23.66236516 26.24427795 25.10856628 C29.26417002 28.12698949 32.28225913 31.14720078 35.29907227 34.16870117 C39.17520903 38.05056552 43.05585913 41.92788216 46.93784237 45.80389881 C49.92063133 48.78308635 52.90104949 51.76463643 55.88073921 54.74692345 C57.31181909 56.17867218 58.74364704 57.60967358 60.17622185 59.03992653 C62.16799877 61.02918052 64.15657041 63.02158266 66.14428711 65.01489258 C66.7410878 65.60966904 67.33788849 66.2044455 67.95277405 66.81724548 C72 70.88573146 72 70.88573146 72 72 C24.81 72 -22.38 72 -71 72 C-66.89692374 67.2130777 -62.80672795 62.66588241 -58.35205078 58.23852539 C-57.71719254 57.60352112 -57.08233429 56.96851685 -56.42823792 56.31427002 C-54.35296051 54.23968296 -52.27417599 52.16864927 -50.1953125 50.09765625 C-48.74635295 48.65056401 -47.29761568 47.20324916 -45.84909058 45.75572205 C-42.0537669 41.96419893 -38.25544869 38.17568979 -34.45648193 34.38781738 C-30.57332841 30.5149311 -26.69303805 26.63917848 -22.8125 22.76367188 C-15.21112017 15.17298592 -7.60657116 7.58548351 0 0 Z " fill="#88ae45" transform="translate(208,596)"/>
<path d="M0 0 C7.87700015 6.75171442 7.87700015 6.75171442 11.46655273 10.3371582 C12.2668541 11.1343074 13.06715546 11.9314566 13.89170837 12.75276184 C14.73053055 13.59360825 15.56935272 14.43445465 16.43359375 15.30078125 C17.7504995 16.61625191 17.7504995 16.61625191 19.0940094 17.95829773 C20.9365418 19.8001529 22.7778251 21.6432584 24.61791992 23.48754883 C26.50839797 25.38162809 28.40014126 27.27430119 30.29467773 29.16430664 C33.03115423 31.89464171 35.76418703 34.62837457 38.49609375 37.36328125 C39.34908554 38.21424881 40.20207733 39.06521637 41.08091736 39.94197083 C41.85915359 40.72335922 42.63738983 41.50474762 43.43920898 42.30981445 C44.12869125 43.00009232 44.81817352 43.69037018 45.52854919 44.40156555 C47 46 47 46 47 47 C31.49 47 15.98 47 0 47 C0 31.49 0 15.98 0 0 Z " fill="#c7ede6" transform="translate(0,621)"/>
</svg>
